{
    "asset" : {
        "generator" : "Khronos glTF Blender I/O v1.7.33",
        "version" : "2.0"
    },
    "scene" : 0,
    "scenes" : [
        {
            "name" : "Scene",
            "nodes" : [
                0
            ]
        }
    ],
    "nodes" : [
        {
            "mesh" : 0,
            "name" : "Cap01_Modeling_v0033",
            "rotation" : [
                0.7071068286895752,
                0,
                0,
                0.7071067094802856
            ]
        }
    ],
    "materials" : [
        {
            "doubleSided" : true,
            "name" : "Default OBJ",
            "pbrMetallicRoughness" : {
                "baseColorFactor" : [
                    0.800000011920929,
                    0.800000011920929,
                    0.800000011920929,
                    1
                ],
                "metallicFactor" : 0,
                "roughnessFactor" : 0.5
            }
        },
        {
            "doubleSided" : true,
            "name" : "rsMaterial2SG",
            "pbrMetallicRoughness" : {
                "baseColorTexture" : {
                    "index" : 0
                },
                "metallicFactor" : 0,
                "roughnessFactor" : 0.5
            }
        }
    ],
    "meshes" : [
        {
            "name" : "Cap01_Modeling_v0033",
            "primitives" : [
                {
                    "attributes" : {
                        "POSITION" : 0,
                        "NORMAL" : 1,
                        "TEXCOORD_0" : 2
                    },
                    "indices" : 3,
                    "material" : 0
                },
                {
                    "attributes" : {
                        "POSITION" : 4,
                        "NORMAL" : 5,
                        "TEXCOORD_0" : 6
                    },
                    "indices" : 7,
                    "material" : 1
                }
            ]
        }
    ],
    "textures" : [
        {
            "sampler" : 0,
            "source" : 0
        }
    ],
    "images" : [
        {
            "mimeType" : "image/jpeg",
            "name" : "Cap01_Textures_v0009 lolito",
            "uri" : "Cap01_Textures_v0009%20lolito.jpg"
        }
    ],
    "accessors" : [
        {
            "bufferView" : 0,
            "componentType" : 5126,
            "count" : 12231,
            "max" : [
                3.5539469718933105,
                -3.045032024383545,
                -0.3247849941253662
            ],
            "min" : [
                -3.2913949489593506,
                -10.600191116333008,
                -11.07070255279541
            ],
            "type" : "VEC3"
        },
        {
            "bufferView" : 1,
            "componentType" : 5126,
            "count" : 12231,
            "type" : "VEC3"
        },
        {
            "bufferView" : 2,
            "componentType" : 5126,
            "count" : 12231,
            "type" : "VEC2"
        },
        {
            "bufferView" : 3,
            "componentType" : 5123,
            "count" : 68106,
            "type" : "SCALAR"
        },
        {
            "bufferView" : 4,
            "componentType" : 5126,
            "count" : 57174,
            "max" : [
                7.834701061248779,
                11.961283683776855,
                -0.3022400140762329
            ],
            "min" : [
                -6.999358177185059,
                -10.897421836853027,
                -10.723373413085938
            ],
            "type" : "VEC3"
        },
        {
            "bufferView" : 5,
            "componentType" : 5126,
            "count" : 57174,
            "type" : "VEC3"
        },
        {
            "bufferView" : 6,
            "componentType" : 5126,
            "count" : 57174,
            "type" : "VEC2"
        },
        {
            "bufferView" : 7,
            "componentType" : 5123,
            "count" : 336384,
            "type" : "SCALAR"
        }
    ],
    "bufferViews" : [
        {
            "buffer" : 0,
            "byteLength" : 146772,
            "byteOffset" : 0
        },
        {
            "buffer" : 0,
            "byteLength" : 146772,
            "byteOffset" : 146772
        },
        {
            "buffer" : 0,
            "byteLength" : 97848,
            "byteOffset" : 293544
        },
        {
            "buffer" : 0,
            "byteLength" : 136212,
            "byteOffset" : 391392
        },
        {
            "buffer" : 0,
            "byteLength" : 686088,
            "byteOffset" : 527604
        },
        {
            "buffer" : 0,
            "byteLength" : 686088,
            "byteOffset" : 1213692
        },
        {
            "buffer" : 0,
            "byteLength" : 457392,
            "byteOffset" : 1899780
        },
        {
            "buffer" : 0,
            "byteLength" : 672768,
            "byteOffset" : 2357172
        }
    ],
    "samplers" : [
        {
            "magFilter" : 9729,
            "minFilter" : 9987
        }
    ],
    "buffers" : [
        {
            "byteLength" : 3029940,
            "uri" : "scene.bin"
        }
    ]
}
